<!-- src/assets/apple.svg -->
<svg xmlns="http://www.w3.org/2000/svg" width="24" height="24" fill="black" viewBox="0 0 24 24">
  <path d="M16.365 1.43c0 1.14-.418 2.09-1.257 2.843-.84.76-1.828 1.143-2.963 1.143-.048-1.07.32-2.02 1.1-2.86.77-.84 1.74-1.266 2.9-1.273.046.036.138.093.22.147zm3.506 16.998c-.385.885-.857 1.716-1.414 2.49-.74 1.025-1.482 1.538-2.228 1.538-.354 0-.81-.104-1.365-.313-.56-.208-1.073-.313-1.54-.313-.49 0-1.02.104-1.59.313-.566.21-1 .313-1.3.313-.77 0-1.538-.5-2.306-1.5-.67-.844-1.24-1.848-1.7-3.012C5.532 16.2 5.25 14.89 5.25 13.6c0-1.505.355-2.74 1.065-3.703.71-.96 1.66-1.44 2.85-1.44.54 0 1.25.17 2.13.51.88.34 1.44.51 1.68.51.2 0 .82-.196 1.85-.587.99-.35 1.82-.495 2.48-.43 1.832.15 3.21.94 4.135 2.374-1.644.99-2.47 2.385-2.48 4.185 0 1.38.5 2.565 1.5 3.555z"/>
</svg>
