<!-- src/assets/google.svg -->
<svg xmlns="http://www.w3.org/2000/svg" viewBox="0 0 533.5 544.3" width="24" height="24">
  <path fill="#4285f4" d="M533.5 278.4c0-17.6-1.6-35.2-5.2-52H272v98.8h146.9c-6.4 34.4-25.6 63.6-54.4 83.2v68h87.6c51.2-47.2 81.6-116.8 81.6-198z"/>
  <path fill="#34a853" d="M272 544.3c73.6 0 135.2-24 180-65.2l-87.6-68c-24.4 16.4-55.2 25.6-92.4 25.6-70.8 0-130.4-48-151.6-112.8h-89.2v70.8c44 88 134.4 149.6 240.8 149.6z"/>
  <path fill="#fbbc04" d="M120.4 324.8c-10.4-30.8-10.4-64 0-94.8v-70.8H31.2c-38 76.8-38 159.2 0 236l89.2-70.4z"/>
  <path fill="#ea4335" d="M272 107.1c39.6-.4 77.6 13.6 107.2 39.6l80-80C413.2 23.1 344.4-1.3 272 0 165.6 0 75.2 61.6 31.2 149.2l89.2 70.8C141.6 155.1 201.2 107.1 272 107.1z"/>
</svg>
